<svg width="18" height="24" viewBox="0 0 18 24" fill="none" xmlns="http://www.w3.org/2000/svg">
<path d="M17.2964 0.311051C16.8927 0.00809751 16.3875 -0.0678935 15.8822 0.0584214C13.0027 0.916958 11.7651 0.968293 9.89615 0.311051C9.41656 0.134407 8.86095 0.210393 8.45637 0.513352C8.0271 0.816306 7.77447 1.29592 7.77447 1.80118V15.1865C7.09257 14.9082 6.31 14.7573 5.50179 14.7573C2.49675 14.7573 0.0722656 16.8286 0.0722656 19.3786C0.0722656 21.9286 2.52257 24 5.5028 24C8.50783 24 10.9323 21.9286 10.9323 19.3786V5.76616C12.5991 6.01879 14.2658 5.76616 16.7911 5.00827C17.4473 4.80597 17.9279 4.20005 17.9279 3.49347V1.59875C17.9279 1.09349 17.7 0.61403 17.2964 0.311051Z" fill="#83858A"/>
</svg>
